# xmcd
#
# Track frame offsets: 
#        150
#        10888
#        22407
#        34974
#        47060
#        58294
#        70252
#        82247
#        92348
#        106260
#        117814
#        129541
#        140178
#        151211
#        162752
#        172833
#        183229
#        193540
#        205846
#        216810
#        226579
#        236746
#        247396
#        258190
#        268536
#
# Disc length: 3726 seconds
#
# Revision: 0
# Processed by: cddbd v1.5.2PL0 Copyright (c) Steve Scherf et al.
# Submitted via: ExactAudioCopy v0.99pb3
#
DISCID=630e8c19
DTITLE=The Stanley Brothers - Sweetest Love
DYEAR=2006
DGENRE=Country
TTITLE0=Sweetest Love
TTITLE1=The Wandering Boy
TTITLE2=(Say) Won't You Be Mine
TTITLE3=Our Last Goodbye
TTITLE4=I'm Lonesome Without You
TTITLE5=This Weary Heart You Stole Away
TTITLE6=Poison Liks
TTITLE7=Dickson County Breakdown (inst.)
TTITLE8=I Long To See The Old Folks
TTITLE9=A Voice From On High
TTITLE10=Could You Love Me (One More Time)
TTITLE11=Memories Of Mother
TTITLE12=Nobody's Love is Like Mine
TTITLE13=I Just Got Wise
TTITLE14=Blue Moon of Kentucky
TTITLE15=Harbor Of Love
TTITLE16=Calling From Heaven
TTITLE17=Hard Time (inst.)
TTITLE18=I Workship You
TTITLE19=I Hear My Savior Calling
TTITLE20=Just a Little Talk With Jesus
TTITLE21=So Blue
TTITLE22=You'd Better Get Right
TTITLE23=Lonesome And Blue
TTITLE24=Orange Blossom Special
EXTD=
EXTT0=
EXTT1=
EXTT2=
EXTT3=
EXTT4=
EXTT5=
EXTT6=
EXTT7=
EXTT8=
EXTT9=
EXTT10=
EXTT11=
EXTT12=
EXTT13=
EXTT14=
EXTT15=
EXTT16=
EXTT17=
EXTT18=
EXTT19=
EXTT20=
EXTT21=
EXTT22=
EXTT23=
EXTT24=
PLAYORDER=
